<!-- Generated by IcoMoon.io -->
<svg version="1.1" xmlns="http://www.w3.org/2000/svg" width="30" height="30" viewBox="0 0 30 30">
<title>github-with-circle</title>
<path fill="#fff" d="M15.023 14.924c0 0-0.015 0-0.023 0h-0.022c-1.786 0-3.36-0.455-4.291 0.402-0.556 0.513-0.79 1.131-0.79 1.795 0 2.778 2.225 3.12 5.084 3.12h0.044c2.858 0 5.084-0.344 5.084-3.12 0-0.665-0.234-1.284-0.79-1.795-0.933-0.856-2.506-0.402-4.293-0.402zM12.59 18.72c-0.545 0-0.984-0.612-0.984-1.365s0.44-1.362 0.984-1.362c0.545 0 0.985 0.609 0.985 1.362 0.001 0.753-0.44 1.365-0.985 1.365zM17.409 18.72c-0.545 0-0.985-0.612-0.985-1.365s0.441-1.362 0.985-1.362c0.543 0 0.984 0.609 0.984 1.362 0.001 0.753-0.44 1.365-0.984 1.365zM15 0.6c-7.953 0-14.4 6.447-14.4 14.4s6.447 14.4 14.4 14.4 14.4-6.447 14.4-14.4-6.447-14.4-14.4-14.4zM16.314 20.909c-0.258 0-0.771 0-1.314 0.003-0.543-0.003-1.056-0.003-1.314-0.003-1.14 0-5.658-0.089-5.658-5.534 0-1.251 0.429-2.167 1.133-2.932-0.111-0.276-0.117-1.848 0.48-3.354 0 0 1.374 0.15 3.451 1.576 0.434-0.121 1.171-0.183 1.908-0.183s1.473 0.061 1.91 0.181c2.078-1.426 3.451-1.576 3.451-1.576 0.597 1.506 0.593 3.080 0.48 3.354 0.704 0.765 1.132 1.681 1.132 2.933-0.001 5.448-4.52 5.535-5.66 5.535z"></path>
</svg>
