<!-- Generated by IcoMoon.io -->
<svg version="1.1" xmlns="http://www.w3.org/2000/svg" width="30" height="30" viewBox="0 0 30 30">
<title>twitter-with-circle</title>
<path fill="#fff" d="M15 0.6c-7.953 0-14.4 6.447-14.4 14.4s6.447 14.4 14.4 14.4 14.4-6.447 14.4-14.4-6.447-14.4-14.4-14.4zM20.858 12.396c0.006 0.123 0.008 0.246 0.008 0.366 0 3.75-2.851 8.071-8.069 8.071-1.602 0-3.093-0.468-4.347-1.275 0.22 0.027 0.447 0.037 0.676 0.037 1.329 0 2.551-0.451 3.522-1.214-1.24-0.024-2.287-0.843-2.649-1.968 0.172 0.031 0.35 0.050 0.532 0.050 0.258 0 0.51-0.035 0.747-0.099-1.298-0.261-2.275-1.407-2.275-2.781v-0.035c0.382 0.211 0.82 0.34 1.285 0.355-0.762-0.51-1.261-1.377-1.261-2.363 0-0.519 0.14-1.008 0.384-1.426 1.4 1.716 3.488 2.844 5.845 2.965-0.050-0.209-0.074-0.425-0.074-0.648 0-1.565 1.269-2.836 2.836-2.836 0.815 0 1.552 0.345 2.070 0.897 0.646-0.129 1.252-0.363 1.8-0.689-0.211 0.661-0.66 1.218-1.246 1.57 0.575-0.070 1.12-0.222 1.629-0.449-0.38 0.569-0.861 1.070-1.415 1.469z"></path>
</svg>
