<svg id="Layer_1" data-name="Layer 1" xmlns="http://www.w3.org/2000/svg" viewBox="0 0 25 25">
  <defs>
    <style>
      .cls-1 {
        fill: #fff;
      }

      .cls-2, .cls-3 {
        fill: none;
      }

      .cls-2 {
        stroke: #fff;
        stroke-linecap: round;
        stroke-linejoin: round;
        stroke-width: 2px;
      }
    </style>
  </defs>
  <title>icon-github</title>
  <g>
    <path class="cls-1" d="M17.59,11.79c-.73,0-1.47.06-2.2.07-1.28,0-2.56.06-3.84.05s-2.32-.1-3.48-.07A3.11,3.11,0,0,0,6,12.63a4,4,0,0,0-1.17,3.51c.2,2.11,1,3.26,3,3.85a17.29,17.29,0,0,0,5,.52c.55,0,1.09,0,1.64,0a13.16,13.16,0,0,0,3.88-.66,3.51,3.51,0,0,0,2.34-2.3A5.69,5.69,0,0,0,21,15,3.59,3.59,0,0,0,17.59,11.79ZM9.12,18a1.9,1.9,0,0,1-1.66-2.08,1.9,1.9,0,0,1,1.66-2.08,1.9,1.9,0,0,1,1.66,2.08A1.9,1.9,0,0,1,9.12,18ZM17,18a1.9,1.9,0,0,1-1.66-2.08A1.9,1.9,0,0,1,17,13.86a1.9,1.9,0,0,1,1.66,2.08A1.9,1.9,0,0,1,17,18Z"/>
    <path class="cls-2" d="M22.62,9a1.57,1.57,0,0,1-.4-1.19,9.84,9.84,0,0,0-.14-2.23,10.37,10.37,0,0,0-.75-2.72,9,9,0,0,0-2.7.84c-.88.51-1.73,1.06-2.6,1.58a.56.56,0,0,1-.35.07,16.68,16.68,0,0,0-5.6,0,.72.72,0,0,1-.45-.1c-.46-.28-.9-.6-1.36-.87A10.25,10.25,0,0,0,4.39,2.84c0,.09-.07.15-.1.22a12.74,12.74,0,0,0-.77,3.61A6.61,6.61,0,0,0,3.52,8a.66.66,0,0,1-.14.58,6.65,6.65,0,0,0-1.15,2.1A9.74,9.74,0,0,0,2,15.23a8.7,8.7,0,0,0,1.18,3.52A7.16,7.16,0,0,0,8.93,22c2,.17,4,.12,6,.13a11.39,11.39,0,0,0,4.23-.69,6.73,6.73,0,0,0,4.18-4.59,12.52,12.52,0,0,0,.5-4A6.86,6.86,0,0,0,22.62,9Z"/>
    <ellipse class="cls-3" cx="9.12" cy="15.94" rx="1.66" ry="2.08"/>
    <ellipse class="cls-3" cx="17.01" cy="15.94" rx="1.66" ry="2.08"/>
  </g>
</svg>
