<svg id="Layer_1" data-name="Layer 1" xmlns="http://www.w3.org/2000/svg" viewBox="0 0 190 60">
  <defs>
    <style>
      .cls-1 {
        fill: #00ca9f;
      }
    </style>
  </defs>
  <title>articulate-logo</title>
  <g id="Layer_2" data-name="Layer 2">
    <g id="Layer_1-2" data-name="Layer 1-2">
      <g>
        <g>
          <g>
            <path class="cls-1" d="M27.72,10.28H1.21A1.23,1.23,0,0,0,0,11.51v38.3a1.23,1.23,0,0,0,1.21,1.25H6.89V40.19A1.31,1.31,0,0,1,8.2,38.88H19.82V36.94a2.09,2.09,0,1,1,1.11,0v2h0a1.31,1.31,0,0,1,1.31,1.31h0V51h5.45a1.23,1.23,0,0,0,1.23-1.23h0V11.53a1.22,1.22,0,0,0-1.19-1.25h0ZM22.28,28.69A1.31,1.31,0,0,1,21,30H11.83l-4,4a.55.55,0,0,1-.94-.38V19.36A1.31,1.31,0,0,1,8.2,18.05H21a1.31,1.31,0,0,1,1.31,1.31h0Z"/>
            <circle class="cls-1" cx="20.38" cy="34.94" r="0.95"/>
          </g>
          <g>
            <path class="cls-1" d="M11.26,46.66a1.51,1.51,0,1,1,1.51-1.51h0A1.51,1.51,0,0,1,11.26,46.66Z"/>
            <path class="cls-1" d="M17.67,46.66a1.51,1.51,0,1,1,1.51-1.51h0A1.51,1.51,0,0,1,17.67,46.66Z"/>
          </g>
        </g>
        <path class="cls-1" d="M53.42,36.64H46L44.75,39.7H40.08l7.43-17.28h4.64L59.42,39.7H54.57Zm-1.33-3.46L49.7,27l-2.42,6.19Z"/>
        <path class="cls-1" d="M69.61,26.19v4c-2.44-.24-4.06.88-4.29,2.65v6.8H61V26.37h4.43v2.21A4.79,4.79,0,0,1,69.61,26.19Z"/>
        <path class="cls-1" d="M81.25,39a7.26,7.26,0,0,1-3.6.88c-2.6,0-4.42-1.49-4.42-4.27v-5.7H71.35V27H73.2V23.3h4.37V27H81v2.92H77.55v5c0,1,.44,1.43,1.21,1.41a4.69,4.69,0,0,0,1.66-.41Z"/>
        <path class="cls-1" d="M87.91,26.37V39.7H83.55V26.37Zm-.18-3.76a2,2,0,1,1-2-2A2,2,0,0,1,87.73,22.61Z"/>
        <path class="cls-1" d="M97.23,29.83c-1.57,0-2.65,1.31-2.65,3.24s1.09,3.24,2.65,3.24a2.73,2.73,0,0,0,2.65-1.49l3.24,1.85a6.52,6.52,0,0,1-6.06,3.2c-4.11,0-6.85-2.65-6.85-6.75a6.52,6.52,0,0,1,6.9-6.88,6.59,6.59,0,0,1,6,3.16l-3.19,1.84A3,3,0,0,0,97.23,29.83Z"/>
        <path class="cls-1" d="M118.42,26.37V39.7H114V37.53a4.72,4.72,0,0,1-4.27,2.37c-2.88,0-4.76-2-4.76-5.1V26.37h4.42v7.16A2.16,2.16,0,0,0,111.22,36l.29,0c1.56,0,2.48-1.26,2.48-3V26.37Z"/>
        <path class="cls-1" d="M125.23,21.41V39.7h-4.42V21.41Z"/>
        <path class="cls-1" d="M140,31v8.7h-4.31V38.2a4.79,4.79,0,0,1-4,1.71c-2.86,0-4.55-1.72-4.55-4.17s1.77-4,5.1-4h3.47V31.6c0-1.26-.88-2-2.53-2a9.63,9.63,0,0,0-4.06,1.06l-1.21-3a14.65,14.65,0,0,1,6.19-1.45C137.78,26.19,139.91,28,140,31Zm-4.31,4.17V34H133c-1.23,0-1.85.44-1.85,1.39s.67,1.49,1.77,1.49a2.65,2.65,0,0,0,2.72-1.71Z"/>
        <path class="cls-1" d="M151.42,39a7.26,7.26,0,0,1-3.6.88c-2.6,0-4.42-1.49-4.42-4.27v-5.7h-1.88V27h1.85V23.3h4.37V27h3.42v2.92H147.7v5c0,1,.44,1.43,1.21,1.41a4.69,4.69,0,0,0,1.65-.44Z"/>
        <path class="cls-1" d="M166.05,34.2h-9.27a3,3,0,0,0,3,2.34,4.42,4.42,0,0,0,3.14-1.35l2.29,2.29a7.48,7.48,0,0,1-5.79,2.37c-4.37,0-7.07-2.65-7.07-6.75a6.59,6.59,0,0,1,7-6.9C164,26.19,166.33,29.35,166.05,34.2Zm-4.23-2.34a2.39,2.39,0,0,0-2.2-2.56h-.26a2.74,2.74,0,0,0-2.65,2.56Z"/>
      </g>
    </g>
  </g>
</svg>
