<svg id="Layer_1" data-name="Layer 1" xmlns="http://www.w3.org/2000/svg" viewBox="0 0 190 60">
  <defs>
    <style>
      .cls-1 {
        fill: #89d4ed;
      }

      .cls-2 {
        fill: #4e4e4e;
      }
    </style>
  </defs>
  <title>conveyor-logo</title>
  <g id="Layer_2" data-name="Layer 2">
    <g id="Layer_1-2" data-name="Layer 1-2">
      <g>
        <path class="cls-1" d="M35.31,40.19,18.75,31.43c-2.22-1.48-4.59-3.76-.44-6.06,3.62-2,12-5.85,13.78-6.74a.9.9,0,0,0,.24-.23h.09a.82.82,0,0,0,.16-.47v-7.2c0-.09,0-.23-.3-.28L22.81,8.33a1.2,1.2,0,0,0-.47,0l-8.4,2.11a.39.39,0,0,0-.3.46h0v7.73h0L6,21C1.15,23.15-4,29,4.67,36.48L16.52,46.8a5.18,5.18,0,0,1,1.75,4.11A3,3,0,0,1,17.45,53l11-3.61,6.84-2.67s1.64-.5,1.64-3.29A3.45,3.45,0,0,0,35.31,40.19Z"/>
        <g>
          <g>
            <g>
              <path class="cls-2" d="M86.59,33.66c0,3.59-2.84,5.83-6.4,5.83s-6.35-2.24-6.35-5.83,2.94-5.88,6.41-5.88S86.59,30.15,86.59,33.66Zm-3.79,0c0-1.4-.61-2.94-2.6-2.94a2.56,2.56,0,0,0-2.65,2.94c0,1.43.56,2.94,2.65,2.94S82.8,35.12,82.8,33.66Z"/>
              <path class="cls-2" d="M100.55,39.27H96.72V32.91c0-1.33-.51-2-1.71-2a2.48,2.48,0,0,0-2.14,2.78h0v5.63H89.05V28h3.83v1.4a4.3,4.3,0,0,1,3.45-1.63c3,0,4.23,2.06,4.23,5.12Z"/>
              <path class="cls-2" d="M110.23,39.27h-4.48L101.46,28h3.84l2.65,7.24L110.61,28h3.87Z"/>
              <path class="cls-2" d="M131,44.92l2.54-6.36-.33.82L128.55,28h3.84l2.76,6.91L137.79,28h3.87l-4.25,10.51-2.48,6.36Z"/>
              <path class="cls-2" d="M155.09,33.66c0,3.59-2.84,5.83-6.4,5.83s-6.41-2.24-6.41-5.83,2.94-5.88,6.41-5.88S155.09,30.15,155.09,33.66Zm-3.79,0c0-1.4-.61-2.94-2.6-2.94a2.56,2.56,0,0,0-2.65,2.94c0,1.43.56,2.94,2.65,2.94s2.59-1.48,2.59-2.94Z"/>
              <path class="cls-2" d="M161.33,33.66v5.61H157.5V28h3.83v1.4a3.53,3.53,0,0,1,3-1.63,3,3,0,0,1,1.14.27V31.5h0a2,2,0,0,0-1.53-.64A2.78,2.78,0,0,0,161.33,33.66Z"/>
            </g>
            <path class="cls-2" d="M68.33,33.56A4.76,4.76,0,0,1,64.21,36a5.36,5.36,0,0,1,0-10.7,4.67,4.67,0,0,1,4.11,2.33l3.32-1.87a8.92,8.92,0,1,0,0,9.81h-.11Z"/>
          </g>
          <path class="cls-2" d="M124,35.38a2.79,2.79,0,0,1-2.48,1.41,2.56,2.56,0,0,1-2.48-2.64h0v0h8.71v-.72c0-3.59-2.84-5.64-6.18-5.64-3.73,0-6.55,2.38-6.55,5.88s2.65,5.88,6.55,5.88a6,6,0,0,0,5.22-2.5Zm-2.27-5.17a2.35,2.35,0,0,1,2.48,2.09h-5a2.32,2.32,0,0,1,2.48-2Z"/>
        </g>
        <path class="cls-2" d="M32.59,18V10.75a.17.17,0,0,0-.25-.19l-7.9,2.73c-.09,0-.28.19-.28.62v8.5c-2.22,1.08-4.44,2.17-5.86,3-3.06,1.69-2.59,3.37-1.24,4.73.1-.94,1.79-1.85,1.79-1.85l12.3-6.1C33.09,20.88,32.59,18.24,32.59,18Z"/>
        <path class="cls-2" d="M18.25,50.92a5.18,5.18,0,0,0-1.75-4.11L4.67,36.48C1.52,33.77.2,31.3,0,29.07c.07,8.51,3.21,11.16,3.21,11.16L15.67,52.41a1.67,1.67,0,0,0,2,.35A2.92,2.92,0,0,0,18.25,50.92Z"/>
      </g>
    </g>
  </g>
</svg>
