<svg xmlns="http://www.w3.org/2000/svg" viewBox="0 0 280.67 55.29">
  <defs>
    <style>
      .cls-1 {
        fill: #9b9b9b;
      }

      .cls-2 {
        fill: #747474;
      }

      .cls-3 {
        fill: #7ce4fb;
      }

      .cls-4 {
        fill: #4ddcf4;
      }

      .cls-5 {
        fill: #3ac4ea;
      }

      .cls-6 {
        fill: #4e4e4e;
      }

      .cls-7 {
        fill: #606161;
      }
    </style>
  </defs>
  <title>spg-logo</title>
  <g id="Layer_2" data-name="Layer 2">
    <g id="Layer_1-2" data-name="Layer 1">
      <g>
        <path class="cls-1" d="M47.63,20.06a1.35,1.35,0,0,0-1-.4H17.86A1.35,1.35,0,0,0,16.51,21l-.06,6.63A1.35,1.35,0,0,0,17.81,29H47.63V39.34H10.28a1.35,1.35,0,0,0-1,.39l-8.93,9a1.35,1.35,0,0,0-.4,1v4.22a1.35,1.35,0,0,0,1.35,1.35H8a1.35,1.35,0,0,0,1.35-1.35V48.66H46.68a1.35,1.35,0,0,0,1-.4l8.93-8.93a1.35,1.35,0,0,0,.4-1V29.95a1.35,1.35,0,0,0-.4-1Z"/>
        <path class="cls-2" d="M9.33,39.73l-8.93,9a1.35,1.35,0,0,0-.4,1v4.22a1.35,1.35,0,0,0,1.35,1.35H8a1.35,1.35,0,0,0,1.35-1.35V39.73Z"/>
        <path class="cls-2" d="M57,38.38V29.95a1.35,1.35,0,0,0-.4-1l-8.93-8.93h0V29h0V39.34h0v8.93l8.93-8.93A1.35,1.35,0,0,0,57,38.38Z"/>
        <path class="cls-3" d="M9.33,9.33H47.63l0-8.94A1.35,1.35,0,0,0,46.72,0H10.28a1.35,1.35,0,0,0-1,.4Z"/>
        <g>
          <polygon class="cls-4" points="0.4 9.32 0.4 9.33 9.33 9.33 9.33 0.4 0.4 9.32"/>
          <path class="cls-4" d="M56.56,9.26h0L47.67.39l0,8.94h9Z"/>
        </g>
        <path class="cls-5" d="M.4,9.33S0,9.45,0,10.72V21a1.35,1.35,0,0,0,.4,1L7,28.6a1.35,1.35,0,0,0,2.3-1V9.33H.4Z"/>
        <path class="cls-5" d="M47.66,9.33h9a1.33,1.33,0,0,1,.34.89V14.5a1.35,1.35,0,0,1-1.35,1.35H49a1.35,1.35,0,0,1-1.35-1.35V9.33"/>
        <path class="cls-6" d="M1.16,48.77H9.33v5.17A1.35,1.35,0,0,1,8,55.29H1.35A1.35,1.35,0,0,1,0,53.94V49.67a1.33,1.33,0,0,1,0-.2C.17,48.71,1.16,48.77,1.16,48.77Z"/>
        <path class="cls-6" d="M56.91,29.94A1.3,1.3,0,0,0,55.56,29H47.63V39.34h7.93a1.3,1.3,0,0,0,1.34-.95H57V29.95Z"/>
      </g>
      <g>
        <path class="cls-7" d="M74.49,34.35a8.76,8.76,0,0,1-6.16-2.29l1.89-1.89a6.47,6.47,0,0,0,4.36,1.76c2.13,0,2.89-.67,2.89-1.39,0-.42-.37-1.06-2.06-1.47L73,28.48c-2.3-.59-4.36-1.46-4.36-3.65s2-3.76,5.68-3.76A7.63,7.63,0,0,1,80,23.3l-1.9,1.89a5,5,0,0,0-3.77-1.7c-2.11,0-2.88.67-2.88,1.28s.59.88,2.69,1.41c.29.08,1.79.46,2.09.53,2.7.66,4,2.06,4,3.79C80.24,32.49,78.49,34.35,74.49,34.35Z"/>
        <path class="cls-7" d="M96.82,34.19H94.13V28.64c0-1.71-.26-2.38-1.47-2.38a1.74,1.74,0,0,0-1.74,2l0,6H88.25v-5.9c0-1.44-.3-2-1.47-2a1.79,1.79,0,0,0-1.74,2v5.95H82.36V24.1H85v.72h0A3.6,3.6,0,0,1,87.38,24,3,3,0,0,1,90,25.38h0A3.77,3.77,0,0,1,92.93,24c2.64,0,3.88,1.65,3.88,4.35Z"/>
        <path class="cls-7" d="M108.93,34.2h-2.67v-.58h0a5.24,5.24,0,0,1-2.81.74c-2,0-4.56-.72-4.56-3.31,0-3.05,4.17-3.36,6.73-3.36.08,0,.8,0,.9,0l-.27-.26c-.06-.85-.83-1.28-2-1.28a5.28,5.28,0,0,0-3,.85l-1.65-1.66A7.78,7.78,0,0,1,104.21,24c2.72,0,4.72,1.2,4.72,4Zm-2.41-4.38c-.1,0-.54,0-.61,0-.43,0-.85,0-1.39,0a8.49,8.49,0,0,0-1.58.18c-1,.21-1.42.56-1.42,1.07,0,.74,1,1.06,2,1.06.82,0,2.75-.1,2.75-1.1v-1Z"/>
        <path class="cls-7" d="M117.71,26.43h-.8c-1.89,0-2.75.88-2.75,2.77v5h-2.67V24.12h2.67v1.34h0A3.26,3.26,0,0,1,117.12,24h.59Z"/>
        <path class="cls-7" d="M126.52,32.83a4.47,4.47,0,0,1-3.29,1.52c-2.32,0-3.44-1.2-3.44-3.55V26.5l.13-.24h-1.47V24.12h1.47l-.13-.24v-1.2l2.67-1.42v2.62l-.14.24h3.12v2.14h-3.12l.14.24v4.3c0,.83.42,1.26,1,1.26a2,2,0,0,0,1.49-.8Z"/>
        <path class="cls-7" d="M139.56,29.66h-4l.26.24v4.28H133V21.24h6.51c3.07,0,4.88,1.74,4.88,4.2S142.63,29.66,139.56,29.66Zm0-6h-4l.26.24V27l-.26.26h4c1.52,0,2.11-.75,2.11-1.79S141.08,23.67,139.56,23.67Z"/>
        <path class="cls-7" d="M149.14,34.19h-2.67V20.76h2.67Z"/>
        <path class="cls-7" d="M161.32,34.2h-2.67v-.58h0a5.24,5.24,0,0,1-2.81.74c-2,0-4.56-.72-4.56-3.31,0-3.05,4.17-3.36,6.73-3.36.08,0,.8,0,.9,0l-.27-.26c-.06-.85-.83-1.28-2-1.28a5.28,5.28,0,0,0-3,.85L152,25.36A7.78,7.78,0,0,1,156.6,24c2.72,0,4.72,1.2,4.72,4Zm-2.41-4.38c-.1,0-.54,0-.61,0-.43,0-.85,0-1.39,0a8.48,8.48,0,0,0-1.58.18c-1,.21-1.42.56-1.42,1.07,0,.74,1,1.06,2,1.06.82,0,2.75-.1,2.75-1.1v-1Z"/>
        <path class="cls-7" d="M171.08,32.83a4.47,4.47,0,0,1-3.29,1.52c-2.32,0-3.44-1.2-3.44-3.55V26.5l.13-.24H163V24.12h1.47l-.13-.24v-1.2L167,21.25v2.62l-.14.24H170v2.14h-3.12l.14.24v4.3c0,.83.42,1.26,1,1.26a2,2,0,0,0,1.49-.8Z"/>
        <path class="cls-7" d="M178.74,26.26h-3.09l.13.26v7.67h-2.67V26.5l.13-.24h-1.57V24.13h1.57l-.13-.26c0-2,1.5-3.21,3.73-3.21a5.58,5.58,0,0,1,1.9.27v2.14a4.43,4.43,0,0,0-1.52-.27c-1,0-1.42.4-1.42,1.07l-.16.26h3.1Z"/>
        <path class="cls-7" d="M184.93,34.35c-3.58,0-5.36-2.27-5.36-5.2s1.77-5.2,5.34-5.2,5.37,2.25,5.37,5.2S188.48,34.35,184.93,34.35Zm0-8.09c-1.89,0-2.69,1.15-2.69,2.89s.83,2.91,2.69,2.91,2.69-1.18,2.69-2.91S186.81,26.26,184.93,26.26Z"/>
        <path class="cls-7" d="M198.63,26.43h-.8c-1.89,0-2.75.88-2.75,2.77v5h-2.67V24.12h2.67v1.34h0A3.26,3.26,0,0,1,198,24h.59Z"/>
        <path class="cls-7" d="M214.69,34.19H212V28.64c0-1.71-.26-2.38-1.47-2.38a1.74,1.74,0,0,0-1.74,2l0,6h-2.69v-5.9c0-1.44-.3-2-1.47-2a1.79,1.79,0,0,0-1.74,2v5.95h-2.67V24.1h2.67v.72h0a3.6,3.6,0,0,1,2.32-.86,3,3,0,0,1,2.62,1.42h0A3.77,3.77,0,0,1,210.81,24c2.64,0,3.88,1.65,3.88,4.35Z"/>
        <path class="cls-7" d="M234.79,34.2h-2.35V33a5.48,5.48,0,0,1-3.77,1.37c-4.38,0-6.91-2.56-6.91-6.52s2.59-6.75,7-6.75a7.31,7.31,0,0,1,5.36,2L232.25,25a4.35,4.35,0,0,0-3.49-1.47c-2.89,0-4.24,1.58-4.24,4.33s1.28,4.11,4.14,4.11a3.29,3.29,0,0,0,3.57-2.77l.27-.26H228V26.5h6.78Z"/>
        <path class="cls-7" d="M243.77,26.43H243c-1.89,0-2.75.88-2.75,2.77v5h-2.67V24.12h2.67v1.34h0A3.26,3.26,0,0,1,243.18,24h.59Z"/>
        <path class="cls-7" d="M250.21,34.35c-3.58,0-5.36-2.27-5.36-5.2s1.77-5.2,5.34-5.2,5.37,2.25,5.37,5.2S253.76,34.35,250.21,34.35Zm0-8.09c-1.89,0-2.69,1.15-2.69,2.89s.83,2.91,2.69,2.91,2.69-1.18,2.69-2.91S252.08,26.26,250.21,26.26Z"/>
        <path class="cls-7" d="M267.52,34.2h-2.67v-.88h0a4,4,0,0,1-2.8,1c-3.05,0-4.43-1.61-4.41-4.09V24.12h2.67v6c0,1.21.51,1.93,2.14,1.93,1.46,0,2.43-.72,2.43-2V24.12h2.67Z"/>
        <path class="cls-7" d="M275.65,34.36a4.09,4.09,0,0,1-2.8-.94h0v4.14h-2.67V24.12h2.67v.73h0a4.27,4.27,0,0,1,2.8-.88c3.36,0,5,2.19,5,5.18S279,34.36,275.65,34.36Zm-.3-8.11c-1.9,0-2.67,1.13-2.67,2.91s.75,2.88,2.65,2.88S278,31,278,29.17,277.24,26.26,275.34,26.26Z"/>
      </g>
    </g>
  </g>
</svg>
