<svg xmlns="http://www.w3.org/2000/svg" viewBox="0 0 501.74 487.1">
  <defs>
    <style>
      .cls-1 {
        fill: none;
        stroke: #d1d8db;
        stroke-miterlimit: 10;
      }
    </style>
  </defs>
  <title>spg-lines</title>
  <g id="Layer_2" data-name="Layer 2">
    <g id="Layer_1-2" data-name="Layer 1">
      <g>
        <path class="cls-1" d="M419.25,176.89a11.85,11.85,0,0,0-8.38-3.47H157.54a11.86,11.86,0,0,0-11.86,11.76l-.49,58.28a11.86,11.86,0,0,0,11.86,12h262.2v90.92H90.87a11.86,11.86,0,0,0-8.38,3.47L4,429.26A11.86,11.86,0,0,0,.5,437.66v37.08A11.86,11.86,0,0,0,12.36,486.6H70.64a11.86,11.86,0,0,0,11.86-11.86V428.32H410.86a11.85,11.85,0,0,0,8.38-3.47l78.52-78.52a11.86,11.86,0,0,0,3.47-8.38V263.79a11.86,11.86,0,0,0-3.47-8.38Z"/>
        <path class="cls-1" d="M82.49,349.79,4,429.26A11.86,11.86,0,0,0,.5,437.66v37.08A11.86,11.86,0,0,0,12.36,486.6H70.64a11.86,11.86,0,0,0,11.86-11.86V349.79Z"/>
        <path class="cls-1" d="M501.24,337.94V263.79a11.86,11.86,0,0,0-3.47-8.38l-78.52-78.52h0v78.52h0v90.92h0v78.52l78.52-78.52A11.86,11.86,0,0,0,501.24,337.94Z"/>
        <path class="cls-1" d="M82.49,82.49H419.25l.33-78.59A11.85,11.85,0,0,0,411.26.5H90.9A11.85,11.85,0,0,0,82.51,4Z"/>
        <g>
          <polygon class="cls-1" points="3.97 82.48 3.97 82.49 82.5 82.5 82.52 3.97 3.97 82.48"/>
          <path class="cls-1" d="M497.72,81.94l0,0-78.12-78-.33,78.59h79C498,82.31,497.9,82.11,497.72,81.94Z"/>
        </g>
        <path class="cls-1" d="M4,82.49S.5,83.62.5,94.73v90.55A11.86,11.86,0,0,0,4,193.67l58.28,58.28a11.86,11.86,0,0,0,20.24-8.39V82.51H4Z"/>
        <path class="cls-1" d="M419.5,82.49h78.71a11.69,11.69,0,0,1,3,7.86V128a11.86,11.86,0,0,1-11.86,11.86H431.11A11.86,11.86,0,0,1,419.25,128V82.49"/>
        <path class="cls-1" d="M10.68,429.28H82.49v45.46A11.86,11.86,0,0,1,70.63,486.6H12.36A11.86,11.86,0,0,1,.5,474.74v-37.6a11.72,11.72,0,0,1,.18-1.75C2,428.69,10.68,429.28,10.68,429.28Z"/>
        <path class="cls-1" d="M500.79,263.74c-2.18-9-11.81-8.33-11.81-8.33H419.25v90.9H489s9.63.66,11.81-8.33l.45,0V263.79Z"/>
      </g>
    </g>
  </g>
</svg>
