<svg xmlns="http://www.w3.org/2000/svg" viewBox="0 0 1605.23 405.23">
  <defs>
    <style>
      .cls-1 {
        fill: #e8eced;
      }
    </style>
  </defs>
  <title>texture</title>
  <g id="Layer_2" data-name="Layer 2">
    <g id="Layer_1-2" data-name="Layer 1">
      <g>
        <g>
          <circle class="cls-1" cx="1602.62" cy="402.62" r="2.62"/>
          <circle class="cls-1" cx="1562.62" cy="402.62" r="2.62"/>
          <circle class="cls-1" cx="1522.62" cy="402.62" r="2.62"/>
          <circle class="cls-1" cx="1482.62" cy="402.62" r="2.62"/>
          <circle class="cls-1" cx="1442.62" cy="402.62" r="2.62"/>
          <circle class="cls-1" cx="1402.62" cy="402.62" r="2.62"/>
          <circle class="cls-1" cx="1362.62" cy="402.62" r="2.62"/>
          <circle class="cls-1" cx="1322.62" cy="402.62" r="2.62"/>
          <circle class="cls-1" cx="1282.62" cy="402.62" r="2.62"/>
          <circle class="cls-1" cx="1242.62" cy="402.62" r="2.62"/>
          <circle class="cls-1" cx="1202.62" cy="402.62" r="2.62"/>
          <circle class="cls-1" cx="1162.62" cy="402.62" r="2.62"/>
          <circle class="cls-1" cx="1122.62" cy="402.62" r="2.62"/>
          <circle class="cls-1" cx="1082.62" cy="402.62" r="2.62"/>
          <circle class="cls-1" cx="1042.62" cy="402.62" r="2.62"/>
          <circle class="cls-1" cx="1002.62" cy="402.62" r="2.62"/>
          <circle class="cls-1" cx="962.62" cy="402.62" r="2.62"/>
          <circle class="cls-1" cx="922.62" cy="402.62" r="2.62"/>
          <circle class="cls-1" cx="882.62" cy="402.62" r="2.62"/>
          <circle class="cls-1" cx="842.62" cy="402.62" r="2.62"/>
          <circle class="cls-1" cx="802.62" cy="402.62" r="2.62"/>
          <circle class="cls-1" cx="762.62" cy="402.62" r="2.62"/>
          <circle class="cls-1" cx="722.62" cy="402.62" r="2.62"/>
          <circle class="cls-1" cx="682.62" cy="402.62" r="2.62"/>
          <circle class="cls-1" cx="642.62" cy="402.62" r="2.62"/>
          <circle class="cls-1" cx="602.62" cy="402.62" r="2.62"/>
          <circle class="cls-1" cx="562.62" cy="402.62" r="2.62"/>
          <circle class="cls-1" cx="522.62" cy="402.62" r="2.62"/>
          <circle class="cls-1" cx="482.62" cy="402.62" r="2.62"/>
          <circle class="cls-1" cx="442.62" cy="402.62" r="2.62"/>
          <circle class="cls-1" cx="402.62" cy="402.62" r="2.62"/>
          <circle class="cls-1" cx="362.62" cy="402.62" r="2.62"/>
          <circle class="cls-1" cx="322.62" cy="402.62" r="2.62"/>
          <circle class="cls-1" cx="282.62" cy="402.62" r="2.62"/>
          <circle class="cls-1" cx="242.62" cy="402.62" r="2.62"/>
          <circle class="cls-1" cx="202.62" cy="402.62" r="2.62"/>
          <circle class="cls-1" cx="162.62" cy="402.62" r="2.62"/>
          <circle class="cls-1" cx="122.62" cy="402.62" r="2.62"/>
          <circle class="cls-1" cx="82.62" cy="402.62" r="2.62"/>
          <circle class="cls-1" cx="42.62" cy="402.62" r="2.62"/>
          <circle class="cls-1" cx="2.62" cy="402.62" r="2.62"/>
        </g>
        <g>
          <circle class="cls-1" cx="1602.62" cy="362.62" r="2.62"/>
          <circle class="cls-1" cx="1562.62" cy="362.62" r="2.62"/>
          <circle class="cls-1" cx="1522.62" cy="362.62" r="2.62"/>
          <circle class="cls-1" cx="1482.62" cy="362.62" r="2.62"/>
          <circle class="cls-1" cx="1442.62" cy="362.62" r="2.62"/>
          <circle class="cls-1" cx="1402.62" cy="362.62" r="2.62"/>
          <circle class="cls-1" cx="1362.62" cy="362.62" r="2.62"/>
          <circle class="cls-1" cx="1322.62" cy="362.62" r="2.62"/>
          <circle class="cls-1" cx="1282.62" cy="362.62" r="2.62"/>
          <circle class="cls-1" cx="1242.62" cy="362.62" r="2.62"/>
          <circle class="cls-1" cx="1202.62" cy="362.62" r="2.62"/>
          <circle class="cls-1" cx="1162.62" cy="362.62" r="2.62"/>
          <circle class="cls-1" cx="1122.62" cy="362.62" r="2.62"/>
          <circle class="cls-1" cx="1082.62" cy="362.62" r="2.62"/>
          <circle class="cls-1" cx="1042.62" cy="362.62" r="2.62"/>
          <circle class="cls-1" cx="1002.62" cy="362.62" r="2.62"/>
          <circle class="cls-1" cx="962.62" cy="362.62" r="2.62"/>
          <circle class="cls-1" cx="922.62" cy="362.62" r="2.62"/>
          <circle class="cls-1" cx="882.62" cy="362.62" r="2.62"/>
          <circle class="cls-1" cx="842.62" cy="362.62" r="2.62"/>
          <circle class="cls-1" cx="802.62" cy="362.62" r="2.62"/>
          <circle class="cls-1" cx="762.62" cy="362.62" r="2.62"/>
          <circle class="cls-1" cx="722.62" cy="362.62" r="2.62"/>
          <circle class="cls-1" cx="682.62" cy="362.62" r="2.62"/>
          <circle class="cls-1" cx="642.62" cy="362.62" r="2.62"/>
          <circle class="cls-1" cx="602.62" cy="362.62" r="2.62"/>
          <circle class="cls-1" cx="562.62" cy="362.62" r="2.62"/>
          <circle class="cls-1" cx="522.62" cy="362.62" r="2.62"/>
          <circle class="cls-1" cx="482.62" cy="362.62" r="2.62"/>
          <circle class="cls-1" cx="442.62" cy="362.62" r="2.62"/>
          <circle class="cls-1" cx="402.62" cy="362.62" r="2.62"/>
          <circle class="cls-1" cx="362.62" cy="362.62" r="2.62"/>
          <circle class="cls-1" cx="322.62" cy="362.62" r="2.62"/>
          <circle class="cls-1" cx="282.62" cy="362.62" r="2.62"/>
          <circle class="cls-1" cx="242.62" cy="362.62" r="2.62"/>
          <circle class="cls-1" cx="202.62" cy="362.62" r="2.62"/>
          <circle class="cls-1" cx="162.62" cy="362.62" r="2.62"/>
          <circle class="cls-1" cx="122.62" cy="362.62" r="2.62"/>
          <circle class="cls-1" cx="82.62" cy="362.62" r="2.62"/>
          <circle class="cls-1" cx="42.62" cy="362.62" r="2.62"/>
          <circle class="cls-1" cx="2.62" cy="362.62" r="2.62"/>
        </g>
        <g>
          <circle class="cls-1" cx="1602.62" cy="322.62" r="2.62"/>
          <circle class="cls-1" cx="1562.62" cy="322.62" r="2.62"/>
          <circle class="cls-1" cx="1522.62" cy="322.62" r="2.62"/>
          <circle class="cls-1" cx="1482.62" cy="322.62" r="2.62"/>
          <circle class="cls-1" cx="1442.62" cy="322.62" r="2.62"/>
          <circle class="cls-1" cx="1402.62" cy="322.62" r="2.62"/>
          <circle class="cls-1" cx="1362.62" cy="322.62" r="2.62"/>
          <circle class="cls-1" cx="1322.62" cy="322.62" r="2.62"/>
          <circle class="cls-1" cx="1282.62" cy="322.62" r="2.62"/>
          <circle class="cls-1" cx="1242.62" cy="322.62" r="2.62"/>
          <circle class="cls-1" cx="1202.62" cy="322.62" r="2.62"/>
          <circle class="cls-1" cx="1162.62" cy="322.62" r="2.62"/>
          <circle class="cls-1" cx="1122.62" cy="322.62" r="2.62"/>
          <circle class="cls-1" cx="1082.62" cy="322.62" r="2.62"/>
          <circle class="cls-1" cx="1042.62" cy="322.62" r="2.62"/>
          <circle class="cls-1" cx="1002.62" cy="322.62" r="2.62"/>
          <circle class="cls-1" cx="962.62" cy="322.62" r="2.62"/>
          <circle class="cls-1" cx="922.62" cy="322.62" r="2.62"/>
          <circle class="cls-1" cx="882.62" cy="322.62" r="2.62"/>
          <circle class="cls-1" cx="842.62" cy="322.62" r="2.62"/>
          <circle class="cls-1" cx="802.62" cy="322.62" r="2.62"/>
          <circle class="cls-1" cx="762.62" cy="322.62" r="2.62"/>
          <circle class="cls-1" cx="722.62" cy="322.62" r="2.62"/>
          <circle class="cls-1" cx="682.62" cy="322.62" r="2.62"/>
          <circle class="cls-1" cx="642.62" cy="322.62" r="2.62"/>
          <circle class="cls-1" cx="602.62" cy="322.62" r="2.62"/>
          <circle class="cls-1" cx="562.62" cy="322.62" r="2.62"/>
          <circle class="cls-1" cx="522.62" cy="322.62" r="2.62"/>
          <circle class="cls-1" cx="482.62" cy="322.62" r="2.62"/>
          <circle class="cls-1" cx="442.62" cy="322.62" r="2.62"/>
          <circle class="cls-1" cx="402.62" cy="322.62" r="2.62"/>
          <circle class="cls-1" cx="362.62" cy="322.62" r="2.62"/>
          <circle class="cls-1" cx="322.62" cy="322.62" r="2.62"/>
          <circle class="cls-1" cx="282.62" cy="322.62" r="2.62"/>
          <circle class="cls-1" cx="242.62" cy="322.62" r="2.62"/>
          <circle class="cls-1" cx="202.62" cy="322.62" r="2.62"/>
          <circle class="cls-1" cx="162.62" cy="322.62" r="2.62"/>
          <circle class="cls-1" cx="122.62" cy="322.62" r="2.62"/>
          <circle class="cls-1" cx="82.62" cy="322.62" r="2.62"/>
          <circle class="cls-1" cx="42.62" cy="322.62" r="2.62"/>
          <circle class="cls-1" cx="2.62" cy="322.62" r="2.62"/>
        </g>
        <g>
          <circle class="cls-1" cx="1602.62" cy="282.62" r="2.62"/>
          <circle class="cls-1" cx="1562.62" cy="282.62" r="2.62"/>
          <circle class="cls-1" cx="1522.62" cy="282.62" r="2.62"/>
          <circle class="cls-1" cx="1482.62" cy="282.62" r="2.62"/>
          <circle class="cls-1" cx="1442.62" cy="282.62" r="2.62"/>
          <circle class="cls-1" cx="1402.62" cy="282.62" r="2.62"/>
          <circle class="cls-1" cx="1362.62" cy="282.62" r="2.62"/>
          <circle class="cls-1" cx="1322.62" cy="282.62" r="2.62"/>
          <circle class="cls-1" cx="1282.62" cy="282.62" r="2.62"/>
          <circle class="cls-1" cx="1242.62" cy="282.62" r="2.62"/>
          <circle class="cls-1" cx="1202.62" cy="282.62" r="2.62"/>
          <circle class="cls-1" cx="1162.62" cy="282.62" r="2.62"/>
          <circle class="cls-1" cx="1122.62" cy="282.62" r="2.62"/>
          <circle class="cls-1" cx="1082.62" cy="282.62" r="2.62"/>
          <circle class="cls-1" cx="1042.62" cy="282.62" r="2.62"/>
          <circle class="cls-1" cx="1002.62" cy="282.62" r="2.62"/>
          <circle class="cls-1" cx="962.62" cy="282.62" r="2.62"/>
          <circle class="cls-1" cx="922.62" cy="282.62" r="2.62"/>
          <circle class="cls-1" cx="882.62" cy="282.62" r="2.62"/>
          <circle class="cls-1" cx="842.62" cy="282.62" r="2.62"/>
          <circle class="cls-1" cx="802.62" cy="282.62" r="2.62"/>
          <circle class="cls-1" cx="762.62" cy="282.62" r="2.62"/>
          <circle class="cls-1" cx="722.62" cy="282.62" r="2.62"/>
          <circle class="cls-1" cx="682.62" cy="282.62" r="2.62"/>
          <circle class="cls-1" cx="642.62" cy="282.62" r="2.62"/>
          <circle class="cls-1" cx="602.62" cy="282.62" r="2.62"/>
          <circle class="cls-1" cx="562.62" cy="282.62" r="2.62"/>
          <circle class="cls-1" cx="522.62" cy="282.62" r="2.62"/>
          <circle class="cls-1" cx="482.62" cy="282.62" r="2.62"/>
          <circle class="cls-1" cx="442.62" cy="282.62" r="2.62"/>
          <circle class="cls-1" cx="402.62" cy="282.62" r="2.62"/>
          <circle class="cls-1" cx="362.62" cy="282.62" r="2.62"/>
          <circle class="cls-1" cx="322.62" cy="282.62" r="2.62"/>
          <circle class="cls-1" cx="282.62" cy="282.62" r="2.62"/>
          <circle class="cls-1" cx="242.62" cy="282.62" r="2.62"/>
          <circle class="cls-1" cx="202.62" cy="282.62" r="2.62"/>
          <circle class="cls-1" cx="162.62" cy="282.62" r="2.62"/>
          <circle class="cls-1" cx="122.62" cy="282.62" r="2.62"/>
          <circle class="cls-1" cx="82.62" cy="282.62" r="2.62"/>
          <circle class="cls-1" cx="42.62" cy="282.62" r="2.62"/>
          <circle class="cls-1" cx="2.62" cy="282.62" r="2.62"/>
        </g>
        <g>
          <circle class="cls-1" cx="1602.62" cy="242.62" r="2.62"/>
          <circle class="cls-1" cx="1562.62" cy="242.62" r="2.62"/>
          <circle class="cls-1" cx="1522.62" cy="242.62" r="2.62"/>
          <circle class="cls-1" cx="1482.62" cy="242.62" r="2.62"/>
          <circle class="cls-1" cx="1442.62" cy="242.62" r="2.62"/>
          <circle class="cls-1" cx="1402.62" cy="242.62" r="2.62"/>
          <circle class="cls-1" cx="1362.62" cy="242.62" r="2.62"/>
          <circle class="cls-1" cx="1322.62" cy="242.62" r="2.62"/>
          <circle class="cls-1" cx="1282.62" cy="242.62" r="2.62"/>
          <circle class="cls-1" cx="1242.62" cy="242.62" r="2.62"/>
          <circle class="cls-1" cx="1202.62" cy="242.62" r="2.62"/>
          <circle class="cls-1" cx="1162.62" cy="242.62" r="2.62"/>
          <circle class="cls-1" cx="1122.62" cy="242.62" r="2.62"/>
          <circle class="cls-1" cx="1082.62" cy="242.62" r="2.62"/>
          <circle class="cls-1" cx="1042.62" cy="242.62" r="2.62"/>
          <circle class="cls-1" cx="1002.62" cy="242.62" r="2.62"/>
          <circle class="cls-1" cx="962.62" cy="242.62" r="2.62"/>
          <circle class="cls-1" cx="922.62" cy="242.62" r="2.62"/>
          <circle class="cls-1" cx="882.62" cy="242.62" r="2.62"/>
          <circle class="cls-1" cx="842.62" cy="242.62" r="2.62"/>
          <circle class="cls-1" cx="802.62" cy="242.62" r="2.62"/>
          <circle class="cls-1" cx="762.62" cy="242.62" r="2.62"/>
          <circle class="cls-1" cx="722.62" cy="242.62" r="2.62"/>
          <circle class="cls-1" cx="682.62" cy="242.62" r="2.62"/>
          <circle class="cls-1" cx="642.62" cy="242.62" r="2.62"/>
          <circle class="cls-1" cx="602.62" cy="242.62" r="2.62"/>
          <circle class="cls-1" cx="562.62" cy="242.62" r="2.62"/>
          <circle class="cls-1" cx="522.62" cy="242.62" r="2.62"/>
          <circle class="cls-1" cx="482.62" cy="242.62" r="2.62"/>
          <circle class="cls-1" cx="442.62" cy="242.62" r="2.62"/>
          <circle class="cls-1" cx="402.62" cy="242.62" r="2.62"/>
          <circle class="cls-1" cx="362.62" cy="242.62" r="2.62"/>
          <circle class="cls-1" cx="322.62" cy="242.62" r="2.62"/>
          <circle class="cls-1" cx="282.62" cy="242.62" r="2.62"/>
          <circle class="cls-1" cx="242.62" cy="242.62" r="2.62"/>
          <circle class="cls-1" cx="202.62" cy="242.62" r="2.62"/>
          <circle class="cls-1" cx="162.62" cy="242.62" r="2.62"/>
          <circle class="cls-1" cx="122.62" cy="242.62" r="2.62"/>
          <circle class="cls-1" cx="82.62" cy="242.62" r="2.62"/>
          <circle class="cls-1" cx="42.62" cy="242.62" r="2.62"/>
          <circle class="cls-1" cx="2.62" cy="242.62" r="2.62"/>
        </g>
        <g>
          <circle class="cls-1" cx="1602.62" cy="202.62" r="2.62"/>
          <circle class="cls-1" cx="1562.62" cy="202.62" r="2.62"/>
          <circle class="cls-1" cx="1522.62" cy="202.62" r="2.62"/>
          <circle class="cls-1" cx="1482.62" cy="202.62" r="2.62"/>
          <circle class="cls-1" cx="1442.62" cy="202.62" r="2.62"/>
          <circle class="cls-1" cx="1402.62" cy="202.62" r="2.62"/>
          <circle class="cls-1" cx="1362.62" cy="202.62" r="2.62"/>
          <circle class="cls-1" cx="1322.62" cy="202.62" r="2.62"/>
          <circle class="cls-1" cx="1282.62" cy="202.62" r="2.62"/>
          <circle class="cls-1" cx="1242.62" cy="202.62" r="2.62"/>
          <circle class="cls-1" cx="1202.62" cy="202.62" r="2.62"/>
          <circle class="cls-1" cx="1162.62" cy="202.62" r="2.62"/>
          <circle class="cls-1" cx="1122.62" cy="202.62" r="2.62"/>
          <circle class="cls-1" cx="1082.62" cy="202.62" r="2.62"/>
          <circle class="cls-1" cx="1042.62" cy="202.62" r="2.62"/>
          <circle class="cls-1" cx="1002.62" cy="202.62" r="2.62"/>
          <circle class="cls-1" cx="962.62" cy="202.62" r="2.62"/>
          <circle class="cls-1" cx="922.62" cy="202.62" r="2.62"/>
          <circle class="cls-1" cx="882.62" cy="202.62" r="2.62"/>
          <circle class="cls-1" cx="842.62" cy="202.62" r="2.62"/>
          <circle class="cls-1" cx="802.62" cy="202.62" r="2.62"/>
          <circle class="cls-1" cx="762.62" cy="202.62" r="2.62"/>
          <circle class="cls-1" cx="722.62" cy="202.62" r="2.62"/>
          <circle class="cls-1" cx="682.62" cy="202.62" r="2.62"/>
          <circle class="cls-1" cx="642.62" cy="202.62" r="2.62"/>
          <circle class="cls-1" cx="602.62" cy="202.62" r="2.62"/>
          <circle class="cls-1" cx="562.62" cy="202.62" r="2.62"/>
          <circle class="cls-1" cx="522.62" cy="202.62" r="2.62"/>
          <circle class="cls-1" cx="482.62" cy="202.62" r="2.62"/>
          <circle class="cls-1" cx="442.62" cy="202.62" r="2.62"/>
          <circle class="cls-1" cx="402.62" cy="202.62" r="2.62"/>
          <circle class="cls-1" cx="362.62" cy="202.62" r="2.62"/>
          <circle class="cls-1" cx="322.62" cy="202.62" r="2.62"/>
          <circle class="cls-1" cx="282.62" cy="202.62" r="2.62"/>
          <circle class="cls-1" cx="242.62" cy="202.62" r="2.62"/>
          <circle class="cls-1" cx="202.62" cy="202.62" r="2.62"/>
          <circle class="cls-1" cx="162.62" cy="202.62" r="2.62"/>
          <circle class="cls-1" cx="122.62" cy="202.62" r="2.62"/>
          <circle class="cls-1" cx="82.62" cy="202.62" r="2.62"/>
          <circle class="cls-1" cx="42.62" cy="202.62" r="2.62"/>
          <circle class="cls-1" cx="2.62" cy="202.62" r="2.62"/>
        </g>
        <g>
          <circle class="cls-1" cx="1602.62" cy="162.62" r="2.62"/>
          <circle class="cls-1" cx="1562.62" cy="162.62" r="2.62"/>
          <circle class="cls-1" cx="1522.62" cy="162.62" r="2.62"/>
          <circle class="cls-1" cx="1482.62" cy="162.62" r="2.62"/>
          <circle class="cls-1" cx="1442.62" cy="162.62" r="2.62"/>
          <circle class="cls-1" cx="1402.62" cy="162.62" r="2.62"/>
          <circle class="cls-1" cx="1362.62" cy="162.62" r="2.62"/>
          <circle class="cls-1" cx="1322.62" cy="162.62" r="2.62"/>
          <circle class="cls-1" cx="1282.62" cy="162.62" r="2.62"/>
          <circle class="cls-1" cx="1242.62" cy="162.62" r="2.62"/>
          <circle class="cls-1" cx="1202.62" cy="162.62" r="2.62"/>
          <circle class="cls-1" cx="1162.62" cy="162.62" r="2.62"/>
          <circle class="cls-1" cx="1122.62" cy="162.62" r="2.62"/>
          <circle class="cls-1" cx="1082.62" cy="162.62" r="2.62"/>
          <circle class="cls-1" cx="1042.62" cy="162.62" r="2.62"/>
          <circle class="cls-1" cx="1002.62" cy="162.62" r="2.62"/>
          <circle class="cls-1" cx="962.62" cy="162.62" r="2.62"/>
          <circle class="cls-1" cx="922.62" cy="162.62" r="2.62"/>
          <circle class="cls-1" cx="882.62" cy="162.62" r="2.62"/>
          <circle class="cls-1" cx="842.62" cy="162.62" r="2.62"/>
          <circle class="cls-1" cx="802.62" cy="162.62" r="2.62"/>
          <circle class="cls-1" cx="762.62" cy="162.62" r="2.62"/>
          <circle class="cls-1" cx="722.62" cy="162.62" r="2.62"/>
          <circle class="cls-1" cx="682.62" cy="162.62" r="2.62"/>
          <circle class="cls-1" cx="642.62" cy="162.62" r="2.62"/>
          <circle class="cls-1" cx="602.62" cy="162.62" r="2.62"/>
          <circle class="cls-1" cx="562.62" cy="162.62" r="2.62"/>
          <circle class="cls-1" cx="522.62" cy="162.62" r="2.62"/>
          <circle class="cls-1" cx="482.62" cy="162.62" r="2.62"/>
          <circle class="cls-1" cx="442.62" cy="162.62" r="2.62"/>
          <circle class="cls-1" cx="402.62" cy="162.62" r="2.62"/>
          <circle class="cls-1" cx="362.62" cy="162.62" r="2.62"/>
          <circle class="cls-1" cx="322.62" cy="162.62" r="2.62"/>
          <circle class="cls-1" cx="282.62" cy="162.62" r="2.62"/>
          <circle class="cls-1" cx="242.62" cy="162.62" r="2.62"/>
          <circle class="cls-1" cx="202.62" cy="162.62" r="2.62"/>
          <circle class="cls-1" cx="162.62" cy="162.62" r="2.62"/>
          <circle class="cls-1" cx="122.62" cy="162.62" r="2.62"/>
          <circle class="cls-1" cx="82.62" cy="162.62" r="2.62"/>
          <circle class="cls-1" cx="42.62" cy="162.62" r="2.62"/>
          <circle class="cls-1" cx="2.62" cy="162.62" r="2.62"/>
        </g>
        <g>
          <circle class="cls-1" cx="1602.62" cy="122.62" r="2.62"/>
          <circle class="cls-1" cx="1562.62" cy="122.62" r="2.62"/>
          <circle class="cls-1" cx="1522.62" cy="122.62" r="2.62"/>
          <circle class="cls-1" cx="1482.62" cy="122.62" r="2.62"/>
          <circle class="cls-1" cx="1442.62" cy="122.62" r="2.62"/>
          <circle class="cls-1" cx="1402.62" cy="122.62" r="2.62"/>
          <circle class="cls-1" cx="1362.62" cy="122.62" r="2.62"/>
          <circle class="cls-1" cx="1322.62" cy="122.62" r="2.62"/>
          <circle class="cls-1" cx="1282.62" cy="122.62" r="2.62"/>
          <circle class="cls-1" cx="1242.62" cy="122.62" r="2.62"/>
          <circle class="cls-1" cx="1202.62" cy="122.62" r="2.62"/>
          <circle class="cls-1" cx="1162.62" cy="122.62" r="2.62"/>
          <circle class="cls-1" cx="1122.62" cy="122.62" r="2.62"/>
          <circle class="cls-1" cx="1082.62" cy="122.62" r="2.62"/>
          <circle class="cls-1" cx="1042.62" cy="122.62" r="2.62"/>
          <circle class="cls-1" cx="1002.62" cy="122.62" r="2.62"/>
          <circle class="cls-1" cx="962.62" cy="122.62" r="2.62"/>
          <circle class="cls-1" cx="922.62" cy="122.62" r="2.62"/>
          <circle class="cls-1" cx="882.62" cy="122.62" r="2.62"/>
          <circle class="cls-1" cx="842.62" cy="122.62" r="2.62"/>
          <circle class="cls-1" cx="802.62" cy="122.62" r="2.62"/>
          <circle class="cls-1" cx="762.62" cy="122.62" r="2.62"/>
          <circle class="cls-1" cx="722.62" cy="122.62" r="2.62"/>
          <circle class="cls-1" cx="682.62" cy="122.62" r="2.62"/>
          <circle class="cls-1" cx="642.62" cy="122.62" r="2.62"/>
          <circle class="cls-1" cx="602.62" cy="122.62" r="2.62"/>
          <circle class="cls-1" cx="562.62" cy="122.62" r="2.62"/>
          <circle class="cls-1" cx="522.62" cy="122.62" r="2.62"/>
          <circle class="cls-1" cx="482.62" cy="122.62" r="2.62"/>
          <circle class="cls-1" cx="442.62" cy="122.62" r="2.62"/>
          <circle class="cls-1" cx="402.62" cy="122.62" r="2.62"/>
          <circle class="cls-1" cx="362.62" cy="122.62" r="2.62"/>
          <circle class="cls-1" cx="322.62" cy="122.62" r="2.62"/>
          <circle class="cls-1" cx="282.62" cy="122.62" r="2.62"/>
          <circle class="cls-1" cx="242.62" cy="122.62" r="2.62"/>
          <circle class="cls-1" cx="202.62" cy="122.62" r="2.62"/>
          <circle class="cls-1" cx="162.62" cy="122.62" r="2.62"/>
          <circle class="cls-1" cx="122.62" cy="122.62" r="2.62"/>
          <circle class="cls-1" cx="82.62" cy="122.62" r="2.62"/>
          <circle class="cls-1" cx="42.62" cy="122.62" r="2.62"/>
          <circle class="cls-1" cx="2.62" cy="122.62" r="2.62"/>
        </g>
        <g>
          <circle class="cls-1" cx="1602.62" cy="82.62" r="2.62"/>
          <circle class="cls-1" cx="1562.62" cy="82.62" r="2.62"/>
          <circle class="cls-1" cx="1522.62" cy="82.62" r="2.62"/>
          <circle class="cls-1" cx="1482.62" cy="82.62" r="2.62"/>
          <circle class="cls-1" cx="1442.62" cy="82.62" r="2.62"/>
          <circle class="cls-1" cx="1402.62" cy="82.62" r="2.62"/>
          <circle class="cls-1" cx="1362.62" cy="82.62" r="2.62"/>
          <circle class="cls-1" cx="1322.62" cy="82.62" r="2.62"/>
          <circle class="cls-1" cx="1282.62" cy="82.62" r="2.62"/>
          <circle class="cls-1" cx="1242.62" cy="82.62" r="2.62"/>
          <circle class="cls-1" cx="1202.62" cy="82.62" r="2.62"/>
          <circle class="cls-1" cx="1162.62" cy="82.62" r="2.62"/>
          <circle class="cls-1" cx="1122.62" cy="82.62" r="2.62"/>
          <circle class="cls-1" cx="1082.62" cy="82.62" r="2.62"/>
          <circle class="cls-1" cx="1042.62" cy="82.62" r="2.62"/>
          <circle class="cls-1" cx="1002.62" cy="82.62" r="2.62"/>
          <circle class="cls-1" cx="962.62" cy="82.62" r="2.62"/>
          <circle class="cls-1" cx="922.62" cy="82.62" r="2.62"/>
          <circle class="cls-1" cx="882.62" cy="82.62" r="2.62"/>
          <circle class="cls-1" cx="842.62" cy="82.62" r="2.62"/>
          <circle class="cls-1" cx="802.62" cy="82.62" r="2.62"/>
          <circle class="cls-1" cx="762.62" cy="82.62" r="2.62"/>
          <circle class="cls-1" cx="722.62" cy="82.62" r="2.62"/>
          <circle class="cls-1" cx="682.62" cy="82.62" r="2.62"/>
          <circle class="cls-1" cx="642.62" cy="82.62" r="2.62"/>
          <circle class="cls-1" cx="602.62" cy="82.62" r="2.62"/>
          <circle class="cls-1" cx="562.62" cy="82.62" r="2.62"/>
          <circle class="cls-1" cx="522.62" cy="82.62" r="2.62"/>
          <circle class="cls-1" cx="482.62" cy="82.62" r="2.62"/>
          <circle class="cls-1" cx="442.62" cy="82.62" r="2.62"/>
          <circle class="cls-1" cx="402.62" cy="82.62" r="2.62"/>
          <circle class="cls-1" cx="362.62" cy="82.62" r="2.62"/>
          <circle class="cls-1" cx="322.62" cy="82.62" r="2.62"/>
          <circle class="cls-1" cx="282.62" cy="82.62" r="2.62"/>
          <circle class="cls-1" cx="242.62" cy="82.62" r="2.62"/>
          <circle class="cls-1" cx="202.62" cy="82.62" r="2.62"/>
          <circle class="cls-1" cx="162.62" cy="82.62" r="2.62"/>
          <circle class="cls-1" cx="122.62" cy="82.62" r="2.62"/>
          <circle class="cls-1" cx="82.62" cy="82.62" r="2.62"/>
          <circle class="cls-1" cx="42.62" cy="82.62" r="2.62"/>
          <circle class="cls-1" cx="2.62" cy="82.62" r="2.62"/>
        </g>
        <g>
          <circle class="cls-1" cx="1602.62" cy="42.62" r="2.62"/>
          <circle class="cls-1" cx="1562.62" cy="42.62" r="2.62"/>
          <circle class="cls-1" cx="1522.62" cy="42.62" r="2.62"/>
          <circle class="cls-1" cx="1482.62" cy="42.62" r="2.62"/>
          <circle class="cls-1" cx="1442.62" cy="42.62" r="2.62"/>
          <circle class="cls-1" cx="1402.62" cy="42.62" r="2.62"/>
          <circle class="cls-1" cx="1362.62" cy="42.62" r="2.62"/>
          <circle class="cls-1" cx="1322.62" cy="42.62" r="2.62"/>
          <circle class="cls-1" cx="1282.62" cy="42.62" r="2.62"/>
          <circle class="cls-1" cx="1242.62" cy="42.62" r="2.62"/>
          <circle class="cls-1" cx="1202.62" cy="42.62" r="2.62"/>
          <circle class="cls-1" cx="1162.62" cy="42.62" r="2.62"/>
          <circle class="cls-1" cx="1122.62" cy="42.62" r="2.62"/>
          <circle class="cls-1" cx="1082.62" cy="42.62" r="2.62"/>
          <circle class="cls-1" cx="1042.62" cy="42.62" r="2.62"/>
          <circle class="cls-1" cx="1002.62" cy="42.62" r="2.62"/>
          <circle class="cls-1" cx="962.62" cy="42.62" r="2.62"/>
          <circle class="cls-1" cx="922.62" cy="42.62" r="2.62"/>
          <circle class="cls-1" cx="882.62" cy="42.62" r="2.62"/>
          <circle class="cls-1" cx="842.62" cy="42.62" r="2.62"/>
          <circle class="cls-1" cx="802.62" cy="42.62" r="2.62"/>
          <circle class="cls-1" cx="762.62" cy="42.62" r="2.62"/>
          <circle class="cls-1" cx="722.62" cy="42.62" r="2.62"/>
          <circle class="cls-1" cx="682.62" cy="42.62" r="2.62"/>
          <circle class="cls-1" cx="642.62" cy="42.62" r="2.62"/>
          <circle class="cls-1" cx="602.62" cy="42.62" r="2.62"/>
          <circle class="cls-1" cx="562.62" cy="42.62" r="2.62"/>
          <circle class="cls-1" cx="522.62" cy="42.62" r="2.62"/>
          <circle class="cls-1" cx="482.62" cy="42.62" r="2.62"/>
          <circle class="cls-1" cx="442.62" cy="42.62" r="2.62"/>
          <circle class="cls-1" cx="402.62" cy="42.62" r="2.62"/>
          <circle class="cls-1" cx="362.62" cy="42.62" r="2.62"/>
          <circle class="cls-1" cx="322.62" cy="42.62" r="2.62"/>
          <circle class="cls-1" cx="282.62" cy="42.62" r="2.62"/>
          <circle class="cls-1" cx="242.62" cy="42.62" r="2.62"/>
          <circle class="cls-1" cx="202.62" cy="42.62" r="2.62"/>
          <circle class="cls-1" cx="162.62" cy="42.62" r="2.62"/>
          <circle class="cls-1" cx="122.62" cy="42.62" r="2.62"/>
          <circle class="cls-1" cx="82.62" cy="42.62" r="2.62"/>
          <circle class="cls-1" cx="42.62" cy="42.62" r="2.62"/>
          <circle class="cls-1" cx="2.62" cy="42.62" r="2.62"/>
        </g>
        <g>
          <circle class="cls-1" cx="1602.62" cy="2.62" r="2.62"/>
          <circle class="cls-1" cx="1562.62" cy="2.62" r="2.62"/>
          <circle class="cls-1" cx="1522.62" cy="2.62" r="2.62"/>
          <circle class="cls-1" cx="1482.62" cy="2.62" r="2.62"/>
          <circle class="cls-1" cx="1442.62" cy="2.62" r="2.62"/>
          <circle class="cls-1" cx="1402.62" cy="2.62" r="2.62"/>
          <circle class="cls-1" cx="1362.62" cy="2.62" r="2.62"/>
          <circle class="cls-1" cx="1322.62" cy="2.62" r="2.62"/>
          <circle class="cls-1" cx="1282.62" cy="2.62" r="2.62"/>
          <circle class="cls-1" cx="1242.62" cy="2.62" r="2.62"/>
          <circle class="cls-1" cx="1202.62" cy="2.62" r="2.62"/>
          <circle class="cls-1" cx="1162.62" cy="2.62" r="2.62"/>
          <circle class="cls-1" cx="1122.62" cy="2.62" r="2.62"/>
          <circle class="cls-1" cx="1082.62" cy="2.62" r="2.62"/>
          <circle class="cls-1" cx="1042.62" cy="2.62" r="2.62"/>
          <circle class="cls-1" cx="1002.62" cy="2.62" r="2.62"/>
          <circle class="cls-1" cx="962.62" cy="2.62" r="2.62"/>
          <circle class="cls-1" cx="922.62" cy="2.62" r="2.62"/>
          <circle class="cls-1" cx="882.62" cy="2.62" r="2.62"/>
          <circle class="cls-1" cx="842.62" cy="2.62" r="2.62"/>
          <circle class="cls-1" cx="802.62" cy="2.62" r="2.62"/>
          <circle class="cls-1" cx="762.62" cy="2.62" r="2.62"/>
          <circle class="cls-1" cx="722.62" cy="2.62" r="2.62"/>
          <circle class="cls-1" cx="682.62" cy="2.62" r="2.62"/>
          <circle class="cls-1" cx="642.62" cy="2.62" r="2.62"/>
          <circle class="cls-1" cx="602.62" cy="2.62" r="2.62"/>
          <circle class="cls-1" cx="562.62" cy="2.62" r="2.62"/>
          <circle class="cls-1" cx="522.62" cy="2.62" r="2.62"/>
          <circle class="cls-1" cx="482.62" cy="2.62" r="2.62"/>
          <circle class="cls-1" cx="442.62" cy="2.62" r="2.62"/>
          <circle class="cls-1" cx="402.62" cy="2.62" r="2.62"/>
          <circle class="cls-1" cx="362.62" cy="2.62" r="2.62"/>
          <circle class="cls-1" cx="322.62" cy="2.62" r="2.62"/>
          <circle class="cls-1" cx="282.62" cy="2.62" r="2.62"/>
          <circle class="cls-1" cx="242.62" cy="2.62" r="2.62"/>
          <circle class="cls-1" cx="202.62" cy="2.62" r="2.62"/>
          <circle class="cls-1" cx="162.62" cy="2.62" r="2.62"/>
          <circle class="cls-1" cx="122.62" cy="2.62" r="2.62"/>
          <circle class="cls-1" cx="82.62" cy="2.62" r="2.62"/>
          <circle class="cls-1" cx="42.62" cy="2.62" r="2.62"/>
          <circle class="cls-1" cx="2.62" cy="2.62" r="2.62"/>
        </g>
      </g>
    </g>
  </g>
</svg>
